<?xml version='1.0' encoding='utf-8'?>
<!DOCTYPE svg PUBLIC '-//W3C//DTD SVG 1.1//EN' 'http://www.w3.org/Graphics/SVG/1.1/DTD/svg11.dtd'>
<svg version="1.1" xmlns="http://www.w3.org/2000/svg" viewBox="0 0 512 512" xmlns:xlink="http://www.w3.org/1999/xlink" enable-background="new 0 0 512 512">
  <g>
    <path d="m266.4,401.1v-336.4h129.9c0,1.42109e-14-70.5,192.5-69.2,195.3 4.1,42.1 40.7,74.4 84.2,74.4 43.4,0 78.9-32.2 84-74.2 1.4-2.9-69.1-195.5-69.1-195.5h12.1v-21.5h-172v-32.2h-20.9v32.2h-172v21.5h12.2c0,0-69.6,189.1-69.6,191.3 2.1,44.1 39.6,78.4 84.4,78.4s82.4-34.4 85.5-78.4c0-1.3-70.5-191.3-70.5-191.3h129.9v336.3h-234.3v100h490v-99.9h-234.6zm144.9-88.1c-30.2,0-55.3-20.4-62.6-47.3h125.1c-7.2,26.8-32.2,47.3-62.5,47.3zm-60.4-67.7l60.5-161.2 59.4,161.2h-119.9zm-250.2,67.7c-30.2,0-55.3-20.4-62.6-47.3h125.1c-7.3,26.8-32.3,47.3-62.5,47.3zm-59.5-67.7l60.5-161.2 59.4,161.2h-119.9zm440,235.3h-449.3v-58h449.3v58z"/>
  </g>
</svg>
