<?xml version="1.0" encoding="iso-8859-1"?>
<!-- Generator: Adobe Illustrator 16.0.0, SVG Export Plug-In . SVG Version: 6.00 Build 0)  -->
<!DOCTYPE svg PUBLIC "-//W3C//DTD SVG 1.1//EN" "http://www.w3.org/Graphics/SVG/1.1/DTD/svg11.dtd">
<svg version="1.1" id="Capa_1" xmlns="http://www.w3.org/2000/svg" xmlns:xlink="http://www.w3.org/1999/xlink" x="0px" y="0px"
	 width="980px" height="980px" viewBox="0 0 980 980" style="enable-background:new 0 0 980 980;" xml:space="preserve">
<g>
	<g>
		<path d="M836.5,143.5c-45-45-97.4-80.3-155.7-105C620.3,13,556.1,0,490,0S359.7,13,299.3,38.5c-58.4,24.7-110.8,60-155.7,105
			s-80.3,97.4-105,155.7C13,359.7,0,423.9,0,490s13,130.3,38.5,190.7c24.7,58.399,60,110.8,105,155.7c45,44.899,97.4,80.3,155.7,105
			C359.7,967,423.9,980,490,980s130.3-13,190.7-38.5c58.399-24.7,110.8-60,155.7-105c44.899-45,80.3-97.4,105-155.7
			C967,620.3,980,556.1,980,490s-13-130.3-38.5-190.7C916.8,240.9,881.5,188.5,836.5,143.5z M913.9,669
			c-7.4,17.5-15.801,34.4-25.2,50.7l-3.4-12.9c-1.6-6.1-8-10.3-14.3-9.399l-186.4,27.8c-6.3,0.899-13.399,6.399-15.8,12.2L595,910.9
			c-2.5,5.8,0,13.1,5.5,16.199l11.6,6.601C572.6,944.5,531.7,950,490,950s-82.6-5.5-122.1-16.4l11.6-6.6c5.5-3.1,8-10.4,5.5-16.2
			l-73.8-173.5c-2.5-5.8-9.601-11.3-15.8-12.2L109,697.4c-6.3-0.9-12.7,3.3-14.3,9.399l-3.4,12.9c-9.4-16.3-17.8-33.2-25.2-50.7
			c-19.6-46.3-31.3-95-34.9-145.2l10,8.7c4.8,4.2,12.4,4,17.1-0.2L197,404.6c4.7-4.3,7.4-12.8,6.2-19l-36.4-185
			c-1.2-6.2-7.3-10.8-13.6-10.3l-13.2,1.1c7.8-9.2,16.1-18.1,24.7-26.7C207,122.5,256.2,89.3,311,66.1c1.4-0.6,2.8-1.2,4.2-1.8
			L310,76.7c-2.5,5.8,0,13.1,5.6,16.2L480,185c5.5,3.1,14.5,3.1,20,0l164.5-92.1c5.5-3.1,8-10.3,5.6-16.2L664.9,64.4
			c1.399,0.6,2.8,1.2,4.199,1.8c54.801,23.2,104,56.3,146.2,98.6c8.601,8.6,16.8,17.5,24.7,26.7l-13.2-1.1
			c-6.3-0.5-12.399,4.1-13.6,10.3l-36.4,185c-1.2,6.2,1.601,14.7,6.2,19l138.7,127.6c4.7,4.3,12.3,4.4,17.1,0.2l10-8.7
			C945.2,574,933.5,622.7,913.9,669z"/>
		<path d="M665.2,425.8L499.3,305.2c-5.1-3.7-13.399-3.7-18.6,0L314.8,425.8c-5.1,3.7-7.7,11.601-5.7,17.601l63.4,195
			c2,6,8.7,10.899,15,10.899h205.1c6.301,0,13.101-4.899,15-10.899l63.4-195C672.9,437.4,670.3,429.5,665.2,425.8z"/>
	</g>
</g>
<g>
</g>
<g>
</g>
<g>
</g>
<g>
</g>
<g>
</g>
<g>
</g>
<g>
</g>
<g>
</g>
<g>
</g>
<g>
</g>
<g>
</g>
<g>
</g>
<g>
</g>
<g>
</g>
<g>
</g>
</svg>
